<?xml version="1.0" standalone="no"?>
<!DOCTYPE svg PUBLIC "-//W3C//DTD SVG 20010904//EN"
 "http://www.w3.org/TR/2001/REC-SVG-20010904/DTD/svg10.dtd">
<svg version="1.0" xmlns="http://www.w3.org/2000/svg"
 width="423.000000pt" height="415.000000pt" viewBox="0 0 423.000000 415.000000"
 preserveAspectRatio="xMidYMid meet">

<g transform="translate(0.000000,415.000000) scale(0.100000,-0.100000)"
fill="#000000" stroke="none">
<path d="M1145 4023 c-335 -42 -618 -227 -787 -513 -143 -241 -182 -539 -107
-812 27 -97 106 -258 167 -338 228 -301 593 -463 949 -421 564 65 969 539 940
1096 -23 435 -308 806 -725 945 -117 39 -316 58 -437 43z m273 -249 c443 -91
724 -517 633 -960 -43 -208 -161 -383 -340 -503 -381 -254 -894 -144 -1135
243 -275 440 -67 1024 425 1192 136 46 282 56 417 28z"/>
<path d="M1148 3660 c-150 -24 -331 -130 -422 -249 -102 -132 -148 -265 -148
-428 0 -128 12 -184 69 -303 85 -178 261 -321 451 -367 89 -21 238 -21 327 1
241 59 436 251 502 496 25 93 22 272 -5 363 -42 138 -130 266 -243 353 -65 50
-177 105 -251 123 -66 16 -212 22 -280 11z m320 -226 c25 -18 30 -65 8 -87 -8
-7 -47 -19 -87 -26 -40 -6 -95 -24 -122 -39 -52 -28 -141 -118 -131 -133 3 -5
54 -9 114 -9 101 0 110 -2 124 -22 21 -30 20 -54 -4 -78 -18 -18 -33 -20 -150
-20 l-130 0 0 -40 0 -40 130 0 c117 0 132 -2 150 -20 24 -24 25 -48 4 -78 -14
-21 -23 -22 -130 -22 l-115 0 15 -28 c21 -40 91 -101 144 -124 25 -11 74 -24
109 -28 76 -10 93 -22 93 -64 0 -45 -16 -56 -79 -56 -159 0 -326 106 -393 250
-21 46 -25 49 -60 50 -42 0 -78 28 -78 60 0 28 35 60 65 60 23 0 25 4 25 40 0
36 -3 40 -25 40 -27 0 -65 35 -65 60 0 34 30 60 70 60 36 0 40 3 70 57 49 87
123 158 204 199 105 51 203 67 244 38z"/>
<path d="M2542 3664 c-89 -15 -223 -56 -259 -80 -28 -18 -31 -64 -5 -87 14
-13 43 -16 167 -15 173 2 257 -14 371 -68 141 -66 248 -182 309 -333 24 -60
26 -74 15 -81 -8 -5 -65 -25 -128 -45 -122 -39 -141 -56 -128 -110 6 -23 47
-46 333 -186 248 -122 332 -159 351 -154 20 5 50 59 183 330 87 178 159 333
159 343 0 20 -24 46 -50 54 -8 3 -72 -14 -142 -38 l-127 -42 -53 81 c-109 169
-296 327 -458 388 -148 56 -359 73 -538 43z"/>
<path d="M2792 2219 c-251 -32 -510 -170 -663 -352 -113 -134 -181 -265 -227
-436 -22 -83 -25 -116 -26 -251 0 -135 3 -168 26 -255 81 -312 296 -569 587
-702 224 -103 521 -119 754 -42 236 78 453 253 579 467 245 416 174 939 -173
1280 -223 221 -549 331 -857 291z m315 -254 c373 -86 647 -454 619 -835 -20
-293 -190 -547 -451 -675 -116 -57 -185 -75 -315 -82 -517 -28 -925 434 -836
946 60 345 338 612 690 661 76 11 211 4 293 -15z"/>
<path d="M2850 1863 c-288 -37 -515 -228 -592 -498 -29 -102 -31 -266 -4 -365
84 -311 387 -527 706 -506 106 7 175 26 265 70 140 70 244 175 311 314 48 101
67 181 67 292 1 125 -15 195 -70 310 -39 81 -59 108 -132 181 -132 131 -264
191 -446 202 -38 3 -86 3 -105 0z m113 -121 c12 -10 17 -30 17 -63 l0 -47 50
-17 c92 -31 180 -143 180 -230 0 -33 -28 -65 -58 -65 -40 0 -52 12 -63 61 -14
59 -32 85 -79 109 -49 25 -132 26 -180 2 -42 -21 -80 -75 -80 -114 0 -77 62
-126 176 -139 175 -19 278 -116 278 -259 0 -108 -66 -199 -173 -237 l-51 -18
0 -47 c0 -77 -54 -114 -100 -68 -15 15 -20 33 -20 70 0 38 -4 50 -15 50 -33 0
-114 51 -154 96 -81 92 -82 214 -1 214 35 0 56 -25 63 -75 12 -75 109 -135
196 -120 75 13 141 76 141 136 0 65 -93 139 -175 139 -152 0 -285 119 -285
254 0 112 91 223 203 250 25 6 27 10 27 54 0 52 5 63 34 79 22 12 42 8 69 -15z"/>
<path d="M597 1648 c-20 -16 -327 -642 -327 -667 0 -19 25 -45 50 -53 8 -3 72
14 141 38 l127 42 55 -82 c156 -228 337 -362 572 -422 192 -49 358 -41 567 26
113 36 138 52 138 89 0 55 -25 64 -152 56 -344 -20 -590 116 -708 393 -16 39
-30 75 -30 81 0 5 57 28 126 51 135 45 154 61 140 115 -6 23 -47 46 -331 186
-179 87 -331 159 -338 159 -7 0 -21 -6 -30 -12z"/>
</g>
</svg>
